# xmcd
#
# Track frame offsets:
#	150
#	12602
#	21300
#	34150
#	45317
#	58237
#	69260
#	79402
#	90047
#	102850
#	113197
#	126430
#	135390
#	146150
#	155127
#
# Disc length: 2243 seconds
#
# Revision: 4
# Processed by: cddbd v1.5.1PL0 Copyright (c) Steve Scherf et al.
# Submitted via: dBpowerAMP V4.0
#
DISCID=cd08c10f
DTITLE=Bjelleklang - Synger Svart
DYEAR=1995
DGENRE=Rock/Pop
TTITLE0=Josva and Jeriko
TTITLE1=Tiger Rag
TTITLE2=Kjærligheta biter ...
TTITLE3=Gunnhild er i byn
TTITLE4=Dovenpeis
TTITLE5=Fjellhamarælva
TTITLE6=Hørt og spørt
TTITLE7=De beina, de beina
TTITLE8=Ingen restriksjoner i himmeln
TTITLE9=Spaserstokk
TTITLE10=Plattfotdansen med et flapp flapp ...
TTITLE11=Måsabjønn
TTITLE12=Jonas i hvalfiskens buk
TTITLE13=Musikken vant til slutt
TTITLE14=Bordet fanger
EXTD=
EXTT0=
EXTT1=
EXTT2=
EXTT3=
EXTT4=
EXTT5=
EXTT6=
EXTT7=
EXTT8=
EXTT9=
EXTT10=
EXTT11=
EXTT12=
EXTT13=
EXTT14=
PLAYORDER=
